<?xml version="1.0" encoding="utf-8"?>
<!-- Generator: Adobe Illustrator 16.2.1, SVG Export Plug-In . SVG Version: 6.00 Build 0)  -->
<!DOCTYPE svg PUBLIC "-//W3C//DTD SVG 1.1//EN" "http://www.w3.org/Graphics/SVG/1.1/DTD/svg11.dtd">
<svg version="1.1" xmlns="http://www.w3.org/2000/svg" xmlns:xlink="http://www.w3.org/1999/xlink" x="0px" y="0px" width="600px"
	 height="50px" viewBox="0 0 600 50" enable-background="new 0 0 600 50" xml:space="preserve">
<g id="Layer_2" display="none">
	<rect display="inline" fill="#666666" width="600" height="50"/>
</g>
<g id="DAVID__x2F__ASHBY" display="none">
	<text transform="matrix(1 0 0 1 3.9692 40.2822)" display="inline" fill="#FFFFFF" font-family="'DemingEP'" font-size="46">DAVID / ASHBY</text>
</g>
<g id="DAVID__x7C__ASHBY" display="none">
	<text transform="matrix(1 0 0 1 3.9692 36.2822)" display="inline"><tspan x="0" y="0" fill="#FFFFFF" font-family="'DemingEP'" font-size="46">DAVI</tspan><tspan x="207.596" y="0" fill="#FFFFFF" font-family="'DemingEP'" font-size="46" letter-spacing="-4">D </tspan><tspan x="271.167" y="0" fill="#FFFFFF" font-family="'MyriadPro-Regular'" font-size="46" letter-spacing="-4">|</tspan><tspan x="277.562" y="0" fill="#FFFFFF" font-family="'DemingEP'" font-size="46" letter-spacing="-4"> </tspan><tspan x="292.236" y="0" fill="#FFFFFF" font-family="'DemingEP'" font-size="46">ASHBY</tspan></text>
</g>
<g id="DAVID__x7C__ASHBY_outlines">
	<g>
		<path fill="#FFFFFF" d="M269.661,1.778v46.005h-4V1.778H269.661z"/>
		<g>
			<path fill="#FFFFFF" d="M36.905,8.142c2.668,0,5.167,0.444,7.498,1.334c2.33,0.89,4.362,2.093,6.095,3.61
				c1.732,1.519,3.105,3.305,4.117,5.359s1.518,4.248,1.518,6.578c0,2.331-0.506,4.516-1.518,6.556
				c-1.012,2.039-2.385,3.817-4.117,5.336c-1.733,1.518-3.765,2.721-6.095,3.61c-2.331,0.89-4.83,1.334-7.498,1.334H6.361v-4.83
				h9.66V12.971h-9.66V8.142H36.905z M36.629,37.029c1.993,0,3.864-0.313,5.612-0.942s3.281-1.488,4.6-2.576
				c1.318-1.088,2.353-2.361,3.105-3.818c0.751-1.456,1.127-3.014,1.127-4.669c0-1.656-0.376-3.221-1.127-4.692
				c-0.752-1.472-1.787-2.752-3.105-3.841c-1.319-1.088-2.852-1.947-4.6-2.576c-1.748-0.628-3.619-0.943-5.612-0.943H20.805v24.059
				H36.629z"/>
			<path fill="#FFFFFF" d="M65.655,37.029l14.03-24.059h-9.2V8.142h28.934v4.829h-9.476l14.03,24.059h9.89v4.83H89.759v-4.83h8.464
				l-2.668-4.784H74.12l-2.714,4.784h8.74v4.83H56.042v-4.83H65.655z M92.841,27.415l-8.004-14.397l-8.05,14.397H92.841z"/>
			<path fill="#FFFFFF" d="M137.967,37.029l13.892-24.059h-9.108V8.142h24.104v4.829h-9.43l-13.938,24.059h8.924v4.83h-28.934v-4.83
				h8.924l-13.892-24.059h-9.476V8.142h24.104v4.829h-9.108L137.967,37.029z"/>
			<path fill="#FFFFFF" d="M186.083,37.029h9.66v4.83h-24.104v-4.83h9.66V12.971h-9.66V8.142h24.104v4.829h-9.66V37.029z"/>
			<path fill="#FFFFFF" d="M231.069,8.142c2.668,0,5.168,0.444,7.498,1.334c2.331,0.89,4.362,2.093,6.096,3.61
				c1.731,1.519,3.104,3.305,4.117,5.359c1.012,2.055,1.518,4.248,1.518,6.578c0,2.331-0.506,4.516-1.518,6.556
				c-1.013,2.039-2.386,3.817-4.117,5.336c-1.733,1.518-3.765,2.721-6.096,3.61c-2.33,0.89-4.83,1.334-7.498,1.334h-30.544v-4.83
				h9.66V12.971h-9.66V8.142H231.069z M230.794,37.029c1.993,0,3.864-0.313,5.612-0.942c1.747-0.629,3.28-1.488,4.6-2.576
				c1.318-1.088,2.354-2.361,3.104-3.818c0.752-1.456,1.127-3.014,1.127-4.669c0-1.656-0.375-3.221-1.127-4.692
				c-0.751-1.472-1.786-2.752-3.104-3.841c-1.319-1.088-2.853-1.947-4.6-2.576c-1.748-0.628-3.619-0.943-5.612-0.943H214.97v24.059
				H230.794z"/>
			<path fill="#FFFFFF" d="M294.779,37.029l14.03-24.059h-9.2V8.142h28.934v4.829h-9.476l14.03,24.059h9.89v4.83h-24.104v-4.83
				h8.464l-2.668-4.784h-21.437l-2.714,4.784h8.74v4.83h-24.104v-4.83H294.779z M321.966,27.415l-8.004-14.397l-8.051,14.397
				H321.966z"/>
			<path fill="#FFFFFF" d="M388.527,32.798c0,1.993-0.606,3.642-1.817,4.944c-1.212,1.304-2.791,2.339-4.738,3.104
				c-1.947,0.768-4.125,1.304-6.532,1.611c-2.407,0.306-4.807,0.459-7.198,0.459c-2.976,0-5.789-0.207-8.441-0.621
				s-5.053-0.988-7.199-1.725v1.288h-4.83v-9.614h4.83v3.45c1.564,0.828,3.727,1.495,6.486,2.001s5.812,0.76,9.154,0.76
				c2.576,0,4.799-0.154,6.67-0.461c1.87-0.307,3.411-0.713,4.623-1.219c1.211-0.506,2.107-1.088,2.69-1.748
				c0.582-0.659,0.874-1.342,0.874-2.047c0-1.41-0.621-2.521-1.862-3.335c-1.242-0.812-2.968-1.312-5.176-1.495l-15.731-1.518
				c-0.828-0.093-1.902-0.276-3.22-0.553c-1.319-0.276-2.615-0.743-3.888-1.403c-1.272-0.659-2.369-1.587-3.289-2.782
				c-0.92-1.196-1.38-2.761-1.38-4.692c0-1.993,0.582-3.642,1.748-4.945c1.165-1.303,2.676-2.338,4.531-3.104
				c1.854-0.767,3.963-1.304,6.325-1.61c2.36-0.306,4.737-0.46,7.13-0.46c2.698,0,5.259,0.192,7.682,0.575
				c2.422,0.384,4.63,0.928,6.624,1.633V8.142h4.784v9.613h-4.784v-3.496c-1.472-0.797-3.458-1.448-5.957-1.955
				c-2.5-0.506-5.282-0.759-8.349-0.759c-2.576,0-4.777,0.154-6.602,0.46c-1.824,0.308-3.312,0.713-4.462,1.22
				c-1.149,0.506-1.985,1.089-2.507,1.747c-0.521,0.66-0.782,1.343-0.782,2.048c0,1.41,0.629,2.522,1.887,3.335
				c1.257,0.812,2.989,1.311,5.197,1.495l15.687,1.518c0.828,0.092,1.909,0.276,3.243,0.552c1.334,0.276,2.637,0.744,3.909,1.403
				c1.272,0.66,2.369,1.587,3.289,2.783C388.067,29.302,388.527,30.865,388.527,32.798z"/>
			<path fill="#FFFFFF" d="M440.368,37.029h9.66v4.83h-24.104v-4.83h9.659v-9.614H406.65v9.614h9.66v4.83h-24.104v-4.83h9.66V12.971
				h-9.66V8.142h24.104v4.829h-9.66v9.614h28.934v-9.614h-9.659V8.142h24.104v4.829h-9.66V37.029z"/>
			<path fill="#FFFFFF" d="M500.628,24.241c1.441,0.858,2.599,1.985,3.473,3.381c0.874,1.396,1.312,2.938,1.312,4.623
				c0,1.319-0.284,2.561-0.852,3.727s-1.342,2.185-2.322,3.059c-0.982,0.874-2.132,1.564-3.45,2.07
				c-1.319,0.506-2.729,0.759-4.232,0.759h-39.744v-4.83h9.66V12.971h-9.66V8.142h37.767c1.502,0,2.905,0.253,4.209,0.759
				c1.303,0.506,2.445,1.195,3.427,2.069s1.755,1.895,2.323,3.06c0.567,1.166,0.851,2.407,0.851,3.726
				c0,1.258-0.245,2.438-0.735,3.542C502.161,22.401,501.486,23.383,500.628,24.241z M469.256,22.585h23.046
				c0.828,0,1.61-0.122,2.346-0.368c0.736-0.245,1.372-0.59,1.909-1.034c0.536-0.444,0.966-0.959,1.288-1.541
				c0.322-0.583,0.483-1.212,0.483-1.887c0-0.644-0.161-1.257-0.483-1.84c-0.322-0.582-0.752-1.096-1.288-1.541
				c-0.537-0.444-1.173-0.789-1.909-1.035c-0.735-0.245-1.518-0.368-2.346-0.368h-23.046V22.585z M494.28,37.029
				c0.828,0,1.609-0.122,2.346-0.368c0.736-0.244,1.38-0.59,1.932-1.035c0.553-0.443,0.981-0.957,1.288-1.541
				c0.307-0.582,0.46-1.195,0.46-1.84c0-0.674-0.153-1.303-0.46-1.886c-0.307-0.582-0.735-1.089-1.288-1.519
				c-0.552-0.429-1.195-0.773-1.932-1.035c-0.736-0.26-1.518-0.391-2.346-0.391h-25.024v9.614H494.28z"/>
			<path fill="#FFFFFF" d="M566.96,12.971h-8.418L540.51,31.05v5.979h9.614v4.83h-24.104v-4.83h9.659v-5.935l-18.124-18.124h-8.418
				V8.142h24.104v4.829h-9.016l13.846,14.169l13.8-14.169h-9.016V8.142h24.104V12.971z"/>
		</g>
	</g>
</g>
</svg>
